# xmcd
#
# Track frame offsets:
#	183
#	11805
#	24993
#	37418
#	47258
#	59810
#	70763
#	83215
#	115993
#	130365
#	143030
#	156858
#	169773
#	181275
#	193375
#	207110
#
# Disc length: 3064
#
# Revision: 1
# Processed by: cddbd v1.5.1PL0 Copyright (c) Steve Scherf et al.
# Submitted via: ExactAudioCopy v0.90b4
# Normalized: r0:DSETVAR1,TDELIM( - )
#
DISCID=e90bf610
DTITLE=Various Artist - 16 All Time Blues Hits - CD 7
DYEAR=1991
DGENRE=Blues
TTITLE0=Little Walter - My Babe
TTITLE1=Waters, Muddy - She Moves Me
TTITLE2=Hooker, John Lee - Hobo Blues
TTITLE3=Howlin' Wolf - Shake For Me
TTITLE4=King, B. B. - Ten Long Year
TTITLE5=Clapton, Eric - Snake Drive
TTITLE6=James, Elmore - I Need You
TTITLE7=Bloomfield, Mike - Wee Wee Hours
TTITLE8=Mayall, John - John Lee Boogie
TTITLE9=Williamson, Sonny Boy - Keep It To Yourself
TTITLE10=Little Walter - Blues With A Feelling
TTITLE11=Williams, Big Joe - Don't Want No Big Fat Woman
TTITLE12=Howlin' Wolf - Poor Boy
TTITLE13=James, Elmore - Mean Mistreatin' Mama
TTITLE14=Memphis Slim - My Baby
TTITLE15=Waters, Muddy - Who's Gonna Be Your Sweet Man When I'm Gone
EXTD=All Time Music\nATM 071\n\n10 CD-Set Blues Sampler
EXTT0=
EXTT1=
EXTT2=
EXTT3=
EXTT4=
EXTT5=
EXTT6=
EXTT7=
EXTT8=
EXTT9=
EXTT10=
EXTT11=
EXTT12=
EXTT13=
EXTT14=
EXTT15=
PLAYORDER=
